<svg width="45" height="45" viewBox="0 0 45 45" fill="none" xmlns="http://www.w3.org/2000/svg">
<circle cx="22.5" cy="22.5" r="22.5" fill="#262525"/>
<path d="M30.2699 16.33C28.9399 15.71 27.4999 15.26 25.9999 15C25.9867 14.9996 25.9736 15.0021 25.9615 15.0073C25.9494 15.0125 25.9386 15.0202 25.9299 15.03C25.7499 15.36 25.5399 15.79 25.3999 16.12C23.8089 15.88 22.1909 15.88 20.5999 16.12C20.4599 15.78 20.2499 15.36 20.0599 15.03C20.0499 15.01 20.0199 15 19.9899 15C18.4899 15.26 17.0599 15.71 15.7199 16.33C15.7099 16.33 15.6999 16.34 15.6899 16.35C12.9699 20.42 12.2199 24.38 12.5899 28.3C12.5899 28.32 12.5999 28.34 12.6199 28.35C14.4199 29.67 16.1499 30.47 17.8599 31C17.8899 31.01 17.9199 31 17.9299 30.98C18.3299 30.43 18.6899 29.85 18.9999 29.24C19.0199 29.2 18.9999 29.16 18.9599 29.15C18.3899 28.93 17.8499 28.67 17.3199 28.37C17.2799 28.35 17.2799 28.29 17.3099 28.26C17.4199 28.18 17.5299 28.09 17.6399 28.01C17.6599 27.99 17.6899 27.99 17.7099 28C21.1499 29.57 24.8599 29.57 28.2599 28C28.2799 27.99 28.3099 27.99 28.3299 28.01C28.4399 28.1 28.5499 28.18 28.6599 28.27C28.6999 28.3 28.6999 28.36 28.6499 28.38C28.1299 28.69 27.5799 28.94 27.0099 29.16C26.9699 29.17 26.9599 29.22 26.9699 29.25C27.2899 29.86 27.6499 30.44 28.0399 30.99C28.0699 31 28.0999 31.01 28.1299 31C29.8499 30.47 31.5799 29.67 33.3799 28.35C33.3999 28.34 33.4099 28.32 33.4099 28.3C33.8499 23.77 32.6799 19.84 30.3099 16.35C30.2999 16.34 30.2899 16.33 30.2699 16.33ZM19.5199 25.91C18.4899 25.91 17.6299 24.96 17.6299 23.79C17.6299 22.62 18.4699 21.67 19.5199 21.67C20.5799 21.67 21.4199 22.63 21.4099 23.79C21.4099 24.96 20.5699 25.91 19.5199 25.91ZM26.4899 25.91C25.4599 25.91 24.5999 24.96 24.5999 23.79C24.5999 22.62 25.4399 21.67 26.4899 21.67C27.5499 21.67 28.3899 22.63 28.3799 23.79C28.3799 24.96 27.5499 25.91 26.4899 25.91Z" fill="white"/>
</svg>
