<svg width="45" height="45" viewBox="0 0 45 45" fill="none" xmlns="http://www.w3.org/2000/svg">
<circle cx="22.5" cy="22.5" r="22.5" fill="#262525"/>
<g clip-path="url(#clip0_793_983)">
<path d="M34.8828 18.0837C34.8694 17.076 34.6808 16.0783 34.3254 15.1353C34.0171 14.3398 33.5464 13.6174 32.9432 13.0142C32.3399 12.411 31.6175 11.9402 30.8221 11.632C29.8912 11.2825 28.9077 11.0936 27.9136 11.0732C26.6336 11.016 26.2278 11 22.9786 11C19.7295 11 19.313 11 18.0424 11.0732C17.0487 11.0937 16.0657 11.2827 15.1352 11.632C14.3396 11.94 13.6171 12.4107 13.0138 13.0139C12.4106 13.6172 11.9399 14.3397 11.6319 15.1353C11.2818 16.0655 11.0932 17.0487 11.0744 18.0425C11.0172 19.3238 10.9999 19.7296 10.9999 22.9787C10.9999 26.2279 10.9999 26.643 11.0744 27.915C11.0944 28.9102 11.282 29.8921 11.6319 30.8248C11.9404 31.6202 12.4115 32.3424 13.0149 32.9454C13.6184 33.5484 14.341 34.0188 15.1365 34.3268C16.0645 34.6903 17.0477 34.8927 18.0437 34.9255C19.325 34.9827 19.7308 35 22.98 35C26.2291 35 26.6456 35 27.9162 34.9255C28.9103 34.9059 29.8939 34.7174 30.8247 34.368C31.62 34.0594 32.3422 33.5885 32.9454 32.9854C33.5486 32.3822 34.0194 31.66 34.328 30.8647C34.6779 29.9334 34.8655 28.9514 34.8855 27.9549C34.9427 26.6749 34.96 26.2691 34.96 23.0186C34.9573 19.7695 34.9574 19.357 34.8828 18.0837ZM22.9707 29.1231C19.5725 29.1231 16.8196 26.3702 16.8196 22.9721C16.8196 19.5739 19.5725 16.821 22.9707 16.821C24.602 16.821 26.1665 17.4691 27.3201 18.6226C28.4736 19.7762 29.1217 21.3407 29.1217 22.9721C29.1217 24.6034 28.4736 26.1679 27.3201 27.3215C26.1665 28.475 24.602 29.1231 22.9707 29.1231ZM29.3665 18.0278C29.1781 18.028 28.9915 17.991 28.8174 17.919C28.6433 17.847 28.4851 17.7413 28.3519 17.6081C28.2187 17.4749 28.113 17.3167 28.041 17.1426C27.969 16.9685 27.932 16.7819 27.9322 16.5935C27.9322 16.4053 27.9693 16.2188 28.0413 16.0449C28.1134 15.871 28.219 15.7129 28.3521 15.5798C28.4852 15.4467 28.6433 15.3411 28.8172 15.269C28.9911 15.197 29.1776 15.1599 29.3658 15.1599C29.5541 15.1599 29.7405 15.197 29.9145 15.269C30.0884 15.3411 30.2464 15.4467 30.3796 15.5798C30.5127 15.7129 30.6183 15.871 30.6903 16.0449C30.7624 16.2188 30.7995 16.4053 30.7995 16.5935C30.7995 17.3865 30.1581 18.0278 29.3665 18.0278Z" fill="white"/>
<path d="M22.994 25.9821C24.6525 25.9821 25.997 24.6376 25.997 22.9791C25.997 21.3206 24.6525 19.9761 22.994 19.9761C21.3355 19.9761 19.991 21.3206 19.991 22.9791C19.991 24.6376 21.3355 25.9821 22.994 25.9821Z" fill="white"/>
</g>
<defs>
<clipPath id="clip0_793_983">
<rect width="24" height="24" fill="white" transform="translate(11 11)"/>
</clipPath>
</defs>
</svg>
