<svg width="45" height="45" viewBox="0 0 45 45" fill="none" xmlns="http://www.w3.org/2000/svg">
<circle cx="22.5" cy="22.5" r="22.5" fill="#262525"/>
<path d="M23.5311 11.0203C24.8399 11 26.1411 11.012 27.4409 11C27.5196 12.5308 28.0701 14.09 29.1906 15.1723C30.3089 16.2815 31.8906 16.7893 33.4296 16.961V20.9878C31.9874 20.9405 30.5384 20.6405 29.2296 20.0195C28.6596 19.7615 28.1286 19.4293 27.6089 19.0895C27.6021 22.0115 27.6209 24.9298 27.5901 27.8398C27.5121 29.2378 27.0509 30.629 26.2379 31.781C24.9299 33.6988 22.6596 34.949 20.3279 34.988C18.8976 35.0698 17.4689 34.6798 16.2501 33.9613C14.2304 32.7703 12.8091 30.59 12.6021 28.25C12.576 27.7544 12.572 27.2579 12.5901 26.762C12.7701 24.8593 13.7114 23.039 15.1724 21.8008C16.8284 20.3585 19.1481 19.6715 21.3201 20.078C21.3404 21.5593 21.2811 23.039 21.2811 24.5203C20.2889 24.1993 19.1294 24.2893 18.2624 24.8915C17.6281 25.3094 17.1487 25.9242 16.8981 26.6413C16.6911 27.1483 16.7504 27.7115 16.7624 28.25C17.0001 29.891 18.5781 31.2703 20.2626 31.121C21.3794 31.109 22.4496 30.461 23.0316 29.5123C23.2199 29.18 23.4306 28.8403 23.4419 28.4495C23.5401 26.6608 23.5011 24.8795 23.5131 23.0908C23.5214 19.0595 23.5011 15.0395 23.5319 11.021L23.5311 11.0203Z" fill="white"/>
</svg>
