<svg width="45" height="45" viewBox="0 0 45 45" fill="none" xmlns="http://www.w3.org/2000/svg">
<circle cx="22.5" cy="22.5" r="22.5" fill="#262525"/>
<path d="M32.6606 17.0419C32.1177 17.8494 31.4517 18.5378 30.6625 19.107C30.6703 19.2597 30.6742 19.4322 30.6742 19.6247C30.6742 20.6939 30.5183 21.7644 30.2065 22.8362C29.8948 23.908 29.4185 24.9339 28.7778 25.9139C28.1372 26.8939 27.374 27.7621 26.4883 28.5185C25.6026 29.2749 24.538 29.878 23.2944 30.3278C22.0509 30.7776 20.7181 31.0025 19.2961 31.0025C17.0769 31.0025 15.0332 30.4034 13.1651 29.2052C13.4967 29.2421 13.8147 29.2605 14.1191 29.2605C15.9731 29.2605 17.629 28.6895 19.0868 27.5474C18.2224 27.5315 17.4482 27.2654 16.7643 26.7491C16.0804 26.2327 15.6098 25.573 15.3524 24.7697C15.6068 24.8182 15.8579 24.8424 16.1057 24.8424C16.4624 24.8424 16.8133 24.7959 17.1585 24.7029C16.236 24.5181 15.4707 24.0586 14.8626 23.3244C14.2546 22.5903 13.9505 21.7429 13.9505 20.7823V20.7328C14.5168 21.0463 15.1208 21.2131 15.7625 21.2331C15.216 20.8688 14.7827 20.3937 14.4626 19.8079C14.1425 19.222 13.9825 18.588 13.9825 17.9059C13.9825 17.1864 14.1628 16.5165 14.5233 15.8961C15.5265 17.1272 16.7421 18.1111 18.1701 18.8479C19.5981 19.5847 21.1301 19.9938 22.7661 20.0754C22.6963 19.7846 22.6613 19.4812 22.6612 19.1651C22.6612 18.0613 23.0518 17.1189 23.833 16.3377C24.6142 15.5566 25.5567 15.166 26.6605 15.166C27.8161 15.166 28.7894 15.5868 29.5806 16.4284C30.4845 16.2493 31.3309 15.9255 32.1197 15.4568C31.8158 16.4132 31.2302 17.151 30.3629 17.6702C31.16 17.5755 31.9259 17.3661 32.6606 17.0419H32.6606Z" fill="white"/>
</svg>
