<svg width="45" height="45" viewBox="0 0 45 45" fill="none" xmlns="http://www.w3.org/2000/svg">
<circle cx="22.5" cy="22.5" r="22.5" fill="#262525"/>
<path d="M33.0617 17.9398C32.9422 17.4946 32.7078 17.0886 32.382 16.7624C32.0563 16.4363 31.6505 16.2014 31.2055 16.0813C29.5672 15.6406 23 15.6406 23 15.6406C23 15.6406 16.4328 15.6406 14.7945 16.0789C14.3493 16.1986 13.9433 16.4334 13.6175 16.7596C13.2917 17.0859 13.0574 17.4921 12.9383 17.9375C12.5 19.5781 12.5 23 12.5 23C12.5 23 12.5 26.4219 12.9383 28.0602C13.1797 28.9648 13.8922 29.6773 14.7945 29.9188C16.4328 30.3594 23 30.3594 23 30.3594C23 30.3594 29.5672 30.3594 31.2055 29.9188C32.1102 29.6773 32.8203 28.9648 33.0617 28.0602C33.5 26.4219 33.5 23 33.5 23C33.5 23 33.5 19.5781 33.0617 17.9398ZM20.9141 26.1406V19.8594L26.3516 22.9766L20.9141 26.1406Z" fill="white"/>
</svg>
