<svg width="20" height="20" viewBox="0 0 20 20" fill="none" xmlns="http://www.w3.org/2000/svg">
<path d="M3.3475 14.8675C3.47725 14.9977 3.57667 15.155 3.63868 15.3281C3.70069 15.5011 3.72376 15.6857 3.70625 15.8687C3.6184 16.7157 3.45185 17.5527 3.20875 18.3687C4.9525 17.965 6.0175 17.4975 6.50125 17.2525C6.77563 17.1135 7.09161 17.0806 7.38875 17.16C8.24054 17.3871 9.11846 17.5014 10 17.5C14.995 17.5 18.75 13.9913 18.75 10C18.75 6.01 14.995 2.5 10 2.5C5.005 2.5 1.25 6.01 1.25 10C1.25 11.835 2.02125 13.5375 3.3475 14.8675ZM2.73125 19.7487C2.43509 19.8075 2.13796 19.8612 1.84 19.91C1.59 19.95 1.4 19.69 1.49875 19.4575C1.60974 19.1957 1.71147 18.9302 1.80375 18.6612L1.8075 18.6488C2.1175 17.7487 2.37 16.7138 2.4625 15.75C0.92875 14.2125 0 12.2 0 10C0 5.1675 4.4775 1.25 10 1.25C15.5225 1.25 20 5.1675 20 10C20 14.8325 15.5225 18.75 10 18.75C9.00956 18.7513 8.02323 18.6227 7.06625 18.3675C6.41625 18.6963 5.0175 19.295 2.73125 19.7487Z" fill="white"/>
<path d="M5 6.875C5 6.70924 5.06585 6.55027 5.18306 6.43306C5.30027 6.31585 5.45924 6.25 5.625 6.25H14.375C14.5408 6.25 14.6997 6.31585 14.8169 6.43306C14.9342 6.55027 15 6.70924 15 6.875C15 7.04076 14.9342 7.19973 14.8169 7.31694C14.6997 7.43415 14.5408 7.5 14.375 7.5H5.625C5.45924 7.5 5.30027 7.43415 5.18306 7.31694C5.06585 7.19973 5 7.04076 5 6.875ZM5 10C5 9.83424 5.06585 9.67527 5.18306 9.55806C5.30027 9.44085 5.45924 9.375 5.625 9.375H14.375C14.5408 9.375 14.6997 9.44085 14.8169 9.55806C14.9342 9.67527 15 9.83424 15 10C15 10.1658 14.9342 10.3247 14.8169 10.4419C14.6997 10.5592 14.5408 10.625 14.375 10.625H5.625C5.45924 10.625 5.30027 10.5592 5.18306 10.4419C5.06585 10.3247 5 10.1658 5 10ZM5 13.125C5 12.9592 5.06585 12.8003 5.18306 12.6831C5.30027 12.5658 5.45924 12.5 5.625 12.5H10.625C10.7908 12.5 10.9497 12.5658 11.0669 12.6831C11.1842 12.8003 11.25 12.9592 11.25 13.125C11.25 13.2908 11.1842 13.4497 11.0669 13.5669C10.9497 13.6842 10.7908 13.75 10.625 13.75H5.625C5.45924 13.75 5.30027 13.6842 5.18306 13.5669C5.06585 13.4497 5 13.2908 5 13.125Z" fill="white"/>
</svg>
