<svg width="16" height="18" viewBox="0 0 16 18" fill="none" xmlns="http://www.w3.org/2000/svg">
<path d="M15.3027 9.42381C15.6309 8.99022 15.8125 8.45897 15.8125 7.90624C15.8125 7.02928 15.3223 6.19921 14.5332 5.73632C14.3301 5.61717 14.0988 5.55446 13.8633 5.55468H9.17969L9.29688 3.15429C9.32422 2.57421 9.11914 2.02343 8.7207 1.60351C8.52517 1.39654 8.28926 1.23186 8.02757 1.11966C7.76588 1.00746 7.48395 0.950112 7.19922 0.951171C6.18359 0.951171 5.28516 1.63476 5.01562 2.61328L3.33789 8.68749H0.8125C0.466797 8.68749 0.1875 8.96678 0.1875 9.31248V16.4218C0.1875 16.7675 0.466797 17.0468 0.8125 17.0468H12.5566C12.7363 17.0468 12.9121 17.0117 13.0742 16.9414C14.0039 16.5449 14.6035 15.6367 14.6035 14.6289C14.6035 14.3828 14.5684 14.1406 14.498 13.9062C14.8262 13.4726 15.0078 12.9414 15.0078 12.3886C15.0078 12.1426 14.9727 11.9004 14.9023 11.666C15.2305 11.2324 15.4121 10.7012 15.4121 10.1484C15.4082 9.90233 15.373 9.65819 15.3027 9.42381ZM1.59375 15.6406V10.0937H3.17578V15.6406H1.59375ZM14.0234 8.74608L13.5957 9.11717L13.8672 9.61327C13.9566 9.77668 14.003 9.96018 14.002 10.1465C14.002 10.4687 13.8613 10.7754 13.6191 10.9863L13.1914 11.3574L13.4629 11.8535C13.5523 12.0169 13.5987 12.2004 13.5977 12.3867C13.5977 12.709 13.457 13.0156 13.2148 13.2265L12.7871 13.5976L13.0586 14.0937C13.148 14.2571 13.1944 14.4406 13.1934 14.6269C13.1934 15.0644 12.9355 15.459 12.5371 15.6386H4.42578V10.0312L6.36914 2.99023C6.41925 2.80976 6.52682 2.65055 6.67555 2.53671C6.82428 2.42287 7.00607 2.36061 7.19336 2.35937C7.3418 2.35937 7.48828 2.40234 7.60547 2.49023C7.79883 2.63476 7.90234 2.85351 7.89062 3.08593L7.70312 6.96093H13.8438C14.1914 7.17382 14.4062 7.53319 14.4062 7.90624C14.4062 8.2285 14.2656 8.53319 14.0234 8.74608Z" fill="white"/>
</svg>
