<svg width="30" height="20" viewBox="0 0 30 20" fill="none" xmlns="http://www.w3.org/2000/svg">
<path d="M29.4827 19.8276H0.517265C0.231621 19.8276 0 19.596 0 19.3103V0.689689C0 0.404045 0.231621 0.172424 0.517265 0.172424H29.4827C29.7684 0.172424 30 0.404045 30 0.689689V19.3103C29.9999 19.596 29.7683 19.8276 29.4827 19.8276Z" fill="#F5F5F5"/>
<path d="M29.9999 1.68444H0V0.68969C0 0.404045 0.231621 0.172424 0.517265 0.172424H29.4827C29.7684 0.172424 30 0.404045 30 0.68969L29.9999 1.68444Z" fill="#FF4B55"/>
<path d="M29.9999 6.22018H0V7.73212H29.9999V6.22018Z" fill="#FF4B55"/>
<path d="M29.9999 3.1962H0V4.70814H29.9999V3.1962Z" fill="#FF4B55"/>
<path d="M29.9999 10.756H0.517265C0.231621 10.756 0 10.5244 0 10.2387V9.24399H29.9999V10.756Z" fill="#FF4B55"/>
<path d="M29.9999 15.2922H0V16.8041H29.9999V15.2922Z" fill="#FF4B55"/>
<path d="M29.4827 19.8276H0.517265C0.231621 19.8276 0 19.596 0 19.3103V18.3156H29.9999V19.3104C29.9999 19.596 29.7683 19.8276 29.4827 19.8276Z" fill="#FF4B55"/>
<path d="M29.9999 12.2682H0V13.7802H29.9999V12.2682Z" fill="#FF4B55"/>
<path d="M13.4483 0.173431H0.517266C0.231621 0.173431 0 0.404994 0 0.690638V10.2397C0 10.5253 0.231621 10.7569 0.517266 10.7569H13.4483C13.734 10.7569 13.9656 10.5253 13.9656 10.2397V0.690638C13.9655 0.404994 13.7339 0.173431 13.4483 0.173431Z" fill="#41479B"/>
<path d="M1.45232 1.35976L1.56682 1.70312L1.92875 1.70588C1.97562 1.70629 1.99502 1.76605 1.95734 1.79388L1.66619 2.00892L1.77541 2.35398C1.78959 2.39863 1.73867 2.43566 1.70053 2.40835L1.40609 2.19794L1.11166 2.40841C1.07352 2.43566 1.02272 2.39869 1.03678 2.35404L1.146 2.00898L0.854845 1.79394C0.81717 1.76605 0.836564 1.70634 0.883439 1.70593L1.24537 1.70318L1.35986 1.35982C1.37463 1.31529 1.43744 1.31529 1.45232 1.35976Z" fill="#F5F5F5"/>
<path d="M1.45232 3.1558L1.56682 3.49916L1.92875 3.50191C1.97562 3.50232 1.99502 3.56209 1.95734 3.58992L1.66619 3.80496L1.77541 4.15002C1.78959 4.19466 1.73867 4.2317 1.70053 4.20439L1.40609 3.99398L1.11166 4.20445C1.07352 4.2317 1.02272 4.19472 1.03678 4.15007L1.146 3.80502L0.854845 3.58998C0.81717 3.56209 0.836564 3.50238 0.883439 3.50197L1.24537 3.49922L1.35986 3.15586C1.37463 3.11139 1.43744 3.11139 1.45232 3.1558Z" fill="#F5F5F5"/>
<path d="M1.45232 4.95191L1.56682 5.29528L1.92875 5.29803C1.97562 5.29844 1.99502 5.35821 1.95734 5.38604L1.66619 5.60108L1.77541 5.94615C1.78959 5.99079 1.73867 6.02783 1.70053 6.00052L1.40609 5.79011L1.11166 6.00058C1.07352 6.02783 1.02272 5.99085 1.03678 5.9462L1.146 5.60114L0.854845 5.3861C0.81717 5.35821 0.836564 5.2985 0.883439 5.29809L1.24537 5.29534L1.35986 4.95197C1.37463 4.9075 1.43744 4.9075 1.45232 4.95191Z" fill="#F5F5F5"/>
<path d="M1.45232 6.7481L1.56682 7.09146L1.92875 7.09421C1.97562 7.09462 1.99502 7.15439 1.95734 7.18222L1.66619 7.39726L1.77541 7.74232C1.78959 7.78697 1.73867 7.824 1.70053 7.7967L1.40609 7.58628L1.11166 7.79675C1.07352 7.824 1.02272 7.78703 1.03678 7.74238L1.146 7.39732L0.854845 7.18228C0.81717 7.15439 0.836564 7.09468 0.883439 7.09427L1.24537 7.09152L1.35986 6.74816C1.37463 6.70363 1.43744 6.70363 1.45232 6.7481Z" fill="#F5F5F5"/>
<path d="M1.45232 8.54422L1.56682 8.88758L1.92875 8.89033C1.97562 8.89074 1.99502 8.95051 1.95734 8.97834L1.66619 9.19338L1.77541 9.53843C1.78959 9.58308 1.73867 9.62011 1.70053 9.59281L1.40609 9.3824L1.11166 9.59286C1.07352 9.62011 1.02272 9.58314 1.03678 9.53849L1.146 9.19344L0.854845 8.9784C0.81717 8.95051 0.836564 8.8908 0.883439 8.89039L1.24537 8.88764L1.35986 8.54428C1.37463 8.49969 1.43744 8.49969 1.45232 8.54422Z" fill="#F5F5F5"/>
<path d="M2.84637 2.24025L2.96086 2.58361L3.32279 2.58636C3.36967 2.58677 3.38906 2.64654 3.35138 2.67437L3.06023 2.88941L3.16945 3.23447C3.18363 3.27912 3.13271 3.31615 3.09457 3.28884L2.80014 3.07838L2.5057 3.28884C2.46756 3.31609 2.41676 3.27912 2.43082 3.23447L2.54004 2.88941L2.24889 2.67437C2.21121 2.64648 2.23061 2.58677 2.27748 2.58636L2.63941 2.58361L2.75391 2.24025C2.76861 2.19584 2.83154 2.19584 2.84637 2.24025Z" fill="#F5F5F5"/>
<path d="M2.84637 4.03641L2.96086 4.37977L3.32279 4.38252C3.36967 4.38293 3.38906 4.4427 3.35138 4.47053L3.06023 4.68557L3.16945 5.03063C3.18363 5.07528 3.13271 5.11231 3.09457 5.08501L2.80014 4.87454L2.5057 5.08501C2.46756 5.11225 2.41676 5.07534 2.43082 5.03063L2.54004 4.68557L2.24889 4.47053C2.21121 4.44264 2.23061 4.38293 2.27748 4.38252L2.63941 4.37977L2.75391 4.03641C2.76861 3.99193 2.83154 3.99193 2.84637 4.03641Z" fill="#F5F5F5"/>
<path d="M2.84637 5.83258L2.96086 6.17594L3.32279 6.17869C3.36967 6.1791 3.38906 6.23887 3.35138 6.2667L3.06023 6.48174L3.16945 6.8268C3.18363 6.87144 3.13271 6.90848 3.09457 6.88117L2.80014 6.6707L2.5057 6.88117C2.46756 6.90842 2.41676 6.87144 2.43082 6.8268L2.54004 6.48174L2.24889 6.2667C2.21121 6.23881 2.23061 6.1791 2.27748 6.17869L2.63941 6.17594L2.75391 5.83258C2.76861 5.78811 2.83154 5.78811 2.84637 5.83258Z" fill="#F5F5F5"/>
<path d="M2.84637 7.62874L2.96086 7.9721L3.32279 7.97485C3.36967 7.97526 3.38906 8.03503 3.35138 8.06286L3.06023 8.2779L3.16945 8.62296C3.18363 8.66761 3.13271 8.70464 3.09457 8.67733L2.80014 8.46686L2.5057 8.67733C2.46756 8.70458 2.41676 8.66761 2.43082 8.62296L2.54004 8.2779L2.24889 8.06286C2.21121 8.03497 2.23061 7.97526 2.27748 7.97485L2.63941 7.9721L2.75391 7.62874C2.76861 7.58432 2.83154 7.58432 2.84637 7.62874Z" fill="#F5F5F5"/>
<path d="M4.24065 1.35965L4.35515 1.70301L4.71708 1.70576C4.76395 1.70617 4.78335 1.76594 4.74567 1.79377L4.45452 2.00881L4.56374 2.35387C4.57792 2.39852 4.527 2.43555 4.48886 2.40825L4.19442 2.19778L3.89999 2.40825C3.86185 2.43549 3.81105 2.39852 3.82511 2.35387L3.93433 2.00881L3.64318 1.79377C3.6055 1.76588 3.62489 1.70617 3.67177 1.70576L4.0337 1.70301L4.14819 1.35965C4.16296 1.31518 4.22583 1.31518 4.24065 1.35965Z" fill="#F5F5F5"/>
<path d="M4.24065 3.15578L4.35515 3.49914L4.71708 3.50189C4.76395 3.5023 4.78335 3.56207 4.74567 3.5899L4.45452 3.80494L4.56374 4.15C4.57792 4.19464 4.527 4.23168 4.48886 4.20437L4.19442 3.9939L3.89999 4.20437C3.86185 4.23162 3.81105 4.19464 3.82511 4.15L3.93433 3.80494L3.64318 3.5899C3.6055 3.56201 3.62489 3.5023 3.67177 3.50189L4.0337 3.49914L4.14819 3.15578C4.16296 3.11136 4.22583 3.11136 4.24065 3.15578Z" fill="#F5F5F5"/>
<path d="M4.24065 4.95192L4.35515 5.29528L4.71708 5.29803C4.76395 5.29844 4.78335 5.35821 4.74567 5.38604L4.45452 5.60108L4.56374 5.94614C4.57792 5.99078 4.527 6.02782 4.48886 6.00051L4.19442 5.79004L3.89999 6.00051C3.86185 6.02776 3.81105 5.99078 3.82511 5.94614L3.93433 5.60108L3.64318 5.38604C3.6055 5.35815 3.62489 5.29844 3.67177 5.29803L4.0337 5.29528L4.14819 4.95192C4.16296 4.90751 4.22583 4.90751 4.24065 4.95192Z" fill="#F5F5F5"/>
<path d="M4.24065 6.74811L4.35515 7.09146L4.71708 7.09422C4.76395 7.09463 4.78335 7.1544 4.74567 7.18223L4.45452 7.39727L4.56374 7.74232C4.57792 7.78697 4.527 7.824 4.48886 7.7967L4.19442 7.58623L3.89999 7.7967C3.86185 7.82395 3.81105 7.78697 3.82511 7.74232L3.93433 7.39727L3.64318 7.18223C3.6055 7.15434 3.62489 7.09463 3.67177 7.09422L4.0337 7.09146L4.14819 6.74811C4.16296 6.70363 4.22583 6.70363 4.24065 6.74811Z" fill="#F5F5F5"/>
<path d="M4.24065 8.54423L4.35515 8.8876L4.71708 8.89035C4.76395 8.89076 4.78335 8.95053 4.74567 8.97836L4.45452 9.1934L4.56374 9.53846C4.57792 9.58311 4.527 9.62014 4.48886 9.59284L4.19442 9.38237L3.89999 9.59284C3.86185 9.62008 3.81105 9.58311 3.82511 9.53846L3.93433 9.1934L3.64318 8.97836C3.6055 8.95047 3.62489 8.89076 3.67177 8.89035L4.0337 8.8876L4.14819 8.54423C4.16296 8.4997 4.22583 8.4997 4.24065 8.54423Z" fill="#F5F5F5"/>
<path d="M5.6347 2.24025L5.74919 2.58361L6.11113 2.58636C6.158 2.58677 6.17739 2.64654 6.13972 2.67437L5.84857 2.88941L5.95778 3.23447C5.97196 3.27912 5.92105 3.31615 5.8829 3.28884L5.58847 3.07838L5.29403 3.28884C5.25589 3.31609 5.20509 3.27912 5.21915 3.23447L5.32837 2.88941L5.03722 2.67437C4.99954 2.64648 5.01894 2.58677 5.06581 2.58636L5.42775 2.58361L5.54224 2.24025C5.55695 2.19584 5.61987 2.19584 5.6347 2.24025Z" fill="#F5F5F5"/>
<path d="M5.6347 4.03641L5.74919 4.37977L6.11113 4.38252C6.158 4.38293 6.17739 4.4427 6.13972 4.47053L5.84857 4.68557L5.95778 5.03063C5.97196 5.07528 5.92105 5.11231 5.8829 5.08501L5.58847 4.87454L5.29403 5.08501C5.25589 5.11225 5.20509 5.07534 5.21915 5.03063L5.32837 4.68557L5.03722 4.47053C4.99954 4.44264 5.01894 4.38293 5.06581 4.38252L5.42775 4.37977L5.54224 4.03641C5.55695 3.99193 5.61987 3.99193 5.6347 4.03641Z" fill="#F5F5F5"/>
<path d="M5.6347 5.83258L5.74919 6.17594L6.11113 6.17869C6.158 6.1791 6.17739 6.23887 6.13972 6.2667L5.84857 6.48174L5.95778 6.8268C5.97196 6.87144 5.92105 6.90848 5.8829 6.88117L5.58847 6.6707L5.29403 6.88117C5.25589 6.90842 5.20509 6.87144 5.21915 6.8268L5.32837 6.48174L5.03722 6.2667C4.99954 6.23881 5.01894 6.1791 5.06581 6.17869L5.42775 6.17594L5.54224 5.83258C5.55695 5.78811 5.61987 5.78811 5.6347 5.83258Z" fill="#F5F5F5"/>
<path d="M5.6347 7.62874L5.74919 7.9721L6.11113 7.97485C6.158 7.97526 6.17739 8.03503 6.13972 8.06286L5.84857 8.2779L5.95778 8.62296C5.97196 8.66761 5.92105 8.70464 5.8829 8.67733L5.58847 8.46686L5.29403 8.67733C5.25589 8.70458 5.20509 8.66761 5.21915 8.62296L5.32837 8.2779L5.03722 8.06286C4.99954 8.03497 5.01894 7.97526 5.06581 7.97485L5.42775 7.9721L5.54224 7.62874C5.55695 7.58432 5.61987 7.58432 5.6347 7.62874Z" fill="#F5F5F5"/>
<path d="M7.0288 1.35965L7.1433 1.70301L7.50523 1.70576C7.55211 1.70617 7.5715 1.76594 7.53382 1.79377L7.24267 2.00881L7.35189 2.35387C7.36607 2.39852 7.31515 2.43555 7.27701 2.40825L6.98251 2.19778L6.68808 2.40825C6.64993 2.43549 6.59913 2.39852 6.6132 2.35387L6.72241 2.00881L6.43126 1.79377C6.39359 1.76588 6.41298 1.70617 6.45986 1.70576L6.82179 1.70301L6.93628 1.35965C6.95111 1.31518 7.01398 1.31518 7.0288 1.35965Z" fill="#F5F5F5"/>
<path d="M7.0288 3.15578L7.1433 3.49914L7.50523 3.50189C7.55211 3.5023 7.5715 3.56207 7.53382 3.5899L7.24267 3.80494L7.35189 4.15C7.36607 4.19464 7.31515 4.23168 7.27701 4.20437L6.98251 3.9939L6.68808 4.20437C6.64993 4.23162 6.59913 4.19464 6.6132 4.15L6.72241 3.80494L6.43126 3.5899C6.39359 3.56201 6.41298 3.5023 6.45986 3.50189L6.82179 3.49914L6.93628 3.15578C6.95111 3.11136 7.01398 3.11136 7.0288 3.15578Z" fill="#F5F5F5"/>
<path d="M7.0288 4.95192L7.1433 5.29528L7.50523 5.29803C7.55211 5.29844 7.5715 5.35821 7.53382 5.38604L7.24267 5.60108L7.35189 5.94614C7.36607 5.99078 7.31515 6.02782 7.27701 6.00051L6.98251 5.79004L6.68808 6.00051C6.64993 6.02776 6.59913 5.99078 6.6132 5.94614L6.72241 5.60108L6.43126 5.38604C6.39359 5.35815 6.41298 5.29844 6.45986 5.29803L6.82179 5.29528L6.93628 4.95192C6.95111 4.90751 7.01398 4.90751 7.0288 4.95192Z" fill="#F5F5F5"/>
<path d="M7.0288 6.74811L7.1433 7.09146L7.50523 7.09422C7.55211 7.09463 7.5715 7.1544 7.53382 7.18223L7.24267 7.39727L7.35189 7.74232C7.36607 7.78697 7.31515 7.824 7.27701 7.7967L6.98251 7.58623L6.68808 7.7967C6.64993 7.82395 6.59913 7.78697 6.6132 7.74232L6.72241 7.39727L6.43126 7.18223C6.39359 7.15434 6.41298 7.09463 6.45986 7.09422L6.82179 7.09146L6.93628 6.74811C6.95111 6.70363 7.01398 6.70363 7.0288 6.74811Z" fill="#F5F5F5"/>
<path d="M7.0288 8.54423L7.1433 8.8876L7.50523 8.89035C7.55211 8.89076 7.5715 8.95053 7.53382 8.97836L7.24267 9.1934L7.35189 9.53846C7.36607 9.58311 7.31515 9.62014 7.27701 9.59284L6.98251 9.38237L6.68808 9.59284C6.64993 9.62008 6.59913 9.58311 6.6132 9.53846L6.72241 9.1934L6.43126 8.97836C6.39359 8.95047 6.41298 8.89076 6.45986 8.89035L6.82179 8.8876L6.93628 8.54423C6.95111 8.4997 7.01398 8.4997 7.0288 8.54423Z" fill="#F5F5F5"/>
<path d="M8.42302 2.24025L8.53751 2.58361L8.89944 2.58636C8.94631 2.58677 8.96571 2.64654 8.92803 2.67437L8.63688 2.88941L8.7461 3.23447C8.76028 3.27912 8.70936 3.31615 8.67122 3.28884L8.37679 3.07838L8.08236 3.28884C8.04422 3.31609 7.99342 3.27912 8.00748 3.23447L8.1167 2.88941L7.82555 2.67437C7.78787 2.64648 7.80727 2.58677 7.85414 2.58636L8.21607 2.58361L8.33056 2.24025C8.34539 2.19584 8.4082 2.19584 8.42302 2.24025Z" fill="#F5F5F5"/>
<path d="M8.42302 4.03641L8.53751 4.37977L8.89944 4.38252C8.94631 4.38293 8.96571 4.4427 8.92803 4.47053L8.63688 4.68557L8.7461 5.03063C8.76028 5.07528 8.70936 5.11231 8.67122 5.08501L8.37679 4.87454L8.08236 5.08501C8.04422 5.11225 7.99342 5.07534 8.00748 5.03063L8.1167 4.68557L7.82555 4.47053C7.78787 4.44264 7.80727 4.38293 7.85414 4.38252L8.21607 4.37977L8.33056 4.03641C8.34539 3.99193 8.4082 3.99193 8.42302 4.03641Z" fill="#F5F5F5"/>
<path d="M8.42302 5.83258L8.53751 6.17594L8.89944 6.17869C8.94631 6.1791 8.96571 6.23887 8.92803 6.2667L8.63688 6.48174L8.7461 6.8268C8.76028 6.87144 8.70936 6.90848 8.67122 6.88117L8.37679 6.6707L8.08236 6.88117C8.04422 6.90842 7.99342 6.87144 8.00748 6.8268L8.1167 6.48174L7.82555 6.2667C7.78787 6.23881 7.80727 6.1791 7.85414 6.17869L8.21607 6.17594L8.33056 5.83258C8.34539 5.78811 8.4082 5.78811 8.42302 5.83258Z" fill="#F5F5F5"/>
<path d="M8.42302 7.62874L8.53751 7.9721L8.89944 7.97485C8.94631 7.97526 8.96571 8.03503 8.92803 8.06286L8.63688 8.2779L8.7461 8.62296C8.76028 8.66761 8.70936 8.70464 8.67122 8.67733L8.37679 8.46686L8.08236 8.67733C8.04422 8.70458 7.99342 8.66761 8.00748 8.62296L8.1167 8.2779L7.82555 8.06286C7.78787 8.03497 7.80727 7.97526 7.85414 7.97485L8.21607 7.9721L8.33056 7.62874C8.34539 7.58432 8.4082 7.58432 8.42302 7.62874Z" fill="#F5F5F5"/>
<path d="M9.81706 1.35965L9.93155 1.70301L10.2935 1.70576C10.3404 1.70617 10.3598 1.76594 10.3221 1.79377L10.0309 2.00881L10.1401 2.35387C10.1543 2.39852 10.1034 2.43555 10.0653 2.40825L9.77083 2.19778L9.4764 2.40825C9.43826 2.43549 9.38746 2.39852 9.40152 2.35387L9.51074 2.00881L9.21959 1.79377C9.18192 1.76588 9.20131 1.70617 9.24818 1.70576L9.61011 1.70301L9.7246 1.35965C9.73931 1.31518 9.80224 1.31518 9.81706 1.35965Z" fill="#F5F5F5"/>
<path d="M9.81706 3.15578L9.93155 3.49914L10.2935 3.50189C10.3404 3.5023 10.3598 3.56207 10.3221 3.5899L10.0309 3.80494L10.1401 4.15C10.1543 4.19464 10.1034 4.23168 10.0653 4.20437L9.77083 3.9939L9.4764 4.20437C9.43826 4.23162 9.38746 4.19464 9.40152 4.15L9.51074 3.80494L9.21959 3.5899C9.18192 3.56201 9.20131 3.5023 9.24818 3.50189L9.61011 3.49914L9.7246 3.15578C9.73931 3.11136 9.80224 3.11136 9.81706 3.15578Z" fill="#F5F5F5"/>
<path d="M9.81706 4.95192L9.93155 5.29528L10.2935 5.29803C10.3404 5.29844 10.3598 5.35821 10.3221 5.38604L10.0309 5.60108L10.1401 5.94614C10.1543 5.99078 10.1034 6.02782 10.0653 6.00051L9.77083 5.79004L9.4764 6.00051C9.43826 6.02776 9.38746 5.99078 9.40152 5.94614L9.51074 5.60108L9.21959 5.38604C9.18192 5.35815 9.20131 5.29844 9.24818 5.29803L9.61011 5.29528L9.7246 4.95192C9.73931 4.90751 9.80224 4.90751 9.81706 4.95192Z" fill="#F5F5F5"/>
<path d="M9.81706 6.74811L9.93155 7.09146L10.2935 7.09422C10.3404 7.09463 10.3598 7.1544 10.3221 7.18223L10.0309 7.39727L10.1401 7.74232C10.1543 7.78697 10.1034 7.824 10.0653 7.7967L9.77083 7.58623L9.4764 7.7967C9.43826 7.82395 9.38746 7.78697 9.40152 7.74232L9.51074 7.39727L9.21959 7.18223C9.18192 7.15434 9.20131 7.09463 9.24818 7.09422L9.61011 7.09146L9.7246 6.74811C9.73931 6.70363 9.80224 6.70363 9.81706 6.74811Z" fill="#F5F5F5"/>
<path d="M9.81706 8.54423L9.93155 8.8876L10.2935 8.89035C10.3404 8.89076 10.3598 8.95053 10.3221 8.97836L10.0309 9.1934L10.1401 9.53846C10.1543 9.58311 10.1034 9.62014 10.0653 9.59284L9.77083 9.38237L9.4764 9.59284C9.43826 9.62008 9.38746 9.58311 9.40152 9.53846L9.51074 9.1934L9.21959 8.97836C9.18192 8.95047 9.20131 8.89076 9.24818 8.89035L9.61011 8.8876L9.7246 8.54423C9.73931 8.4997 9.80224 8.4997 9.81706 8.54423Z" fill="#F5F5F5"/>
<path d="M11.2114 2.24025L11.3258 2.58361L11.6878 2.58636C11.7347 2.58677 11.754 2.64654 11.7164 2.67437L11.4252 2.88941L11.5344 3.23447C11.5486 3.27912 11.4977 3.31615 11.4596 3.28884L11.1651 3.07838L10.8707 3.28884C10.8325 3.31609 10.7817 3.27912 10.7958 3.23447L10.905 2.88941L10.6139 2.67437C10.5762 2.64648 10.5956 2.58677 10.6425 2.58636L11.0044 2.58361L11.1189 2.24025C11.1337 2.19584 11.1966 2.19584 11.2114 2.24025Z" fill="#F5F5F5"/>
<path d="M11.2114 4.03641L11.3258 4.37977L11.6878 4.38252C11.7347 4.38293 11.754 4.4427 11.7164 4.47053L11.4252 4.68557L11.5344 5.03063C11.5486 5.07528 11.4977 5.11231 11.4596 5.08501L11.1651 4.87454L10.8707 5.08501C10.8325 5.11225 10.7817 5.07534 10.7958 5.03063L10.905 4.68557L10.6139 4.47053C10.5762 4.44264 10.5956 4.38293 10.6425 4.38252L11.0044 4.37977L11.1189 4.03641C11.1337 3.99193 11.1966 3.99193 11.2114 4.03641Z" fill="#F5F5F5"/>
<path d="M11.2114 5.83258L11.3258 6.17594L11.6878 6.17869C11.7347 6.1791 11.754 6.23887 11.7164 6.2667L11.4252 6.48174L11.5344 6.8268C11.5486 6.87144 11.4977 6.90848 11.4596 6.88117L11.1651 6.6707L10.8707 6.88117C10.8325 6.90842 10.7817 6.87144 10.7958 6.8268L10.905 6.48174L10.6139 6.2667C10.5762 6.23881 10.5956 6.1791 10.6425 6.17869L11.0044 6.17594L11.1189 5.83258C11.1337 5.78811 11.1966 5.78811 11.2114 5.83258Z" fill="#F5F5F5"/>
<path d="M11.2114 7.62874L11.3258 7.9721L11.6878 7.97485C11.7347 7.97526 11.754 8.03503 11.7164 8.06286L11.4252 8.2779L11.5344 8.62296C11.5486 8.66761 11.4977 8.70464 11.4596 8.67733L11.1651 8.46686L10.8707 8.67733C10.8325 8.70458 10.7817 8.66761 10.7958 8.62296L10.905 8.2779L10.6139 8.06286C10.5762 8.03497 10.5956 7.97526 10.6425 7.97485L11.0044 7.9721L11.1189 7.62874C11.1337 7.58432 11.1966 7.58432 11.2114 7.62874Z" fill="#F5F5F5"/>
<path d="M12.6054 1.35965L12.7199 1.70301L13.0818 1.70576C13.1287 1.70617 13.1481 1.76594 13.1104 1.79377L12.8193 2.00881L12.9285 2.35387C12.9427 2.39852 12.8918 2.43555 12.8536 2.40825L12.5592 2.19778L12.2647 2.40825C12.2266 2.43549 12.1758 2.39852 12.1899 2.35387L12.2991 2.00881L12.0079 1.79377C11.9702 1.76588 11.9896 1.70617 12.0365 1.70576L12.3985 1.70301L12.5129 1.35965C12.5277 1.31518 12.5905 1.31518 12.6054 1.35965Z" fill="#F5F5F5"/>
<path d="M12.6054 3.15578L12.7199 3.49914L13.0818 3.50189C13.1287 3.5023 13.1481 3.56207 13.1104 3.5899L12.8193 3.80494L12.9285 4.15C12.9427 4.19464 12.8918 4.23168 12.8536 4.20437L12.5592 3.9939L12.2647 4.20437C12.2266 4.23162 12.1758 4.19464 12.1899 4.15L12.2991 3.80494L12.0079 3.5899C11.9702 3.56201 11.9896 3.5023 12.0365 3.50189L12.3985 3.49914L12.5129 3.15578C12.5277 3.11136 12.5905 3.11136 12.6054 3.15578Z" fill="#F5F5F5"/>
<path d="M12.6054 4.95192L12.7199 5.29528L13.0818 5.29803C13.1287 5.29844 13.1481 5.35821 13.1104 5.38604L12.8193 5.60108L12.9285 5.94614C12.9427 5.99078 12.8918 6.02782 12.8536 6.00051L12.5592 5.79004L12.2647 6.00051C12.2266 6.02776 12.1758 5.99078 12.1899 5.94614L12.2991 5.60108L12.0079 5.38604C11.9702 5.35815 11.9896 5.29844 12.0365 5.29803L12.3985 5.29528L12.5129 4.95192C12.5277 4.90751 12.5905 4.90751 12.6054 4.95192Z" fill="#F5F5F5"/>
<path d="M12.6054 6.74811L12.7199 7.09146L13.0818 7.09422C13.1287 7.09463 13.1481 7.1544 13.1104 7.18223L12.8193 7.39727L12.9285 7.74232C12.9427 7.78697 12.8918 7.824 12.8536 7.7967L12.5592 7.58623L12.2647 7.7967C12.2266 7.82395 12.1758 7.78697 12.1899 7.74232L12.2991 7.39727L12.0079 7.18223C11.9702 7.15434 11.9896 7.09463 12.0365 7.09422L12.3985 7.09146L12.5129 6.74811C12.5277 6.70363 12.5905 6.70363 12.6054 6.74811Z" fill="#F5F5F5"/>
<path d="M12.6054 8.54423L12.7199 8.8876L13.0818 8.89035C13.1287 8.89076 13.1481 8.95053 13.1104 8.97836L12.8193 9.1934L12.9285 9.53846C12.9427 9.58311 12.8918 9.62014 12.8536 9.59284L12.5592 9.38237L12.2647 9.59284C12.2266 9.62008 12.1758 9.58311 12.1899 9.53846L12.2991 9.1934L12.0079 8.97836C11.9702 8.95047 11.9896 8.89076 12.0365 8.89035L12.3985 8.8876L12.5129 8.54423C12.5277 8.4997 12.5905 8.4997 12.6054 8.54423Z" fill="#F5F5F5"/>
</svg>
