<svg width="30" height="22" viewBox="0 0 30 22" fill="none" xmlns="http://www.w3.org/2000/svg">
<path d="M23.2759 21.3185H28.9655C29.5368 21.3185 30 20.8554 30 20.2841V1.66345C30 1.09193 29.5368 0.628906 28.9655 0.628906H1.03455C0.463028 0.628906 0 1.09216 0 1.66345V20.2841C0 20.8554 0.463028 21.3185 1.03455 21.3185H23.2759Z" fill="#C03A2B"/>
<path d="M5.02028 4.24957L5.93214 6.09756L7.97171 6.39397L6.49611 7.83203L6.84424 9.86313L5.02028 8.90434L3.19609 9.86313L3.54468 7.83203L2.06885 6.39397L4.10841 6.09756L5.02028 4.24957Z" fill="#F3D55B"/>
<path d="M9.04285 2.48373L9.76176 2.72726L10.3706 2.27316L10.3607 3.03259L10.981 3.47113L10.2557 3.69658L10.0302 4.42191L9.59171 3.80164L8.83228 3.81148L9.28638 3.20265L9.04285 2.48373Z" fill="#F3D55B"/>
<path d="M9.04285 11.6218L9.76176 11.8654L10.3706 11.4113L10.3607 12.1705L10.981 12.6092L10.2557 12.8347L10.0302 13.56L9.59171 12.9397L8.83228 12.9496L9.28638 12.3407L9.04285 11.6218Z" fill="#F3D55B"/>
<path d="M11.59 5.41481L12.3089 5.65857L12.9177 5.20447L12.9079 5.96367L13.5281 6.40244L12.8028 6.62788L12.5774 7.35298L12.1386 6.73294L11.3794 6.74255L11.8335 6.13396L11.59 5.41481Z" fill="#F3D55B"/>
<path d="M11.59 9.11513L12.3089 9.35889L12.9177 8.90479L12.9079 9.66399L13.5281 10.1025L12.8028 10.3282L12.5774 11.0533L12.1386 10.4333L11.3794 10.4431L11.8335 9.83427L11.59 9.11513Z" fill="#F3D55B"/>
</svg>
